<?xml version="1.0" standalone="no"?>
<!DOCTYPE svg PUBLIC "-//W3C//DTD SVG 20010904//EN"
 "http://www.w3.org/TR/2001/REC-SVG-20010904/DTD/svg10.dtd">
<svg version="1.0" xmlns="http://www.w3.org/2000/svg"
 width="1536.000000pt" height="1024.000000pt" viewBox="0 0 1536.000000 1024.000000"
 preserveAspectRatio="xMidYMid meet">

<g transform="translate(0.000000,1024.000000) scale(0.100000,-0.100000)"
fill="#000000" stroke="none">
<path d="M0 5120 l0 -5120 7680 0 7680 0 0 5120 0 5120 -7680 0 -7680 0 0
-5120z m6310 1890 c415 -206 892 -442 1060 -525 l304 -152 481 237 c264 131
687 340 940 465 253 125 655 323 893 441 l432 213 0 -1497 0 -1497 -162 -86
c-90 -48 -359 -189 -598 -314 -239 -125 -527 -276 -640 -335 -330 -173 -557
-290 -563 -290 -2 0 -5 380 -4 844 l0 845 51 26 c28 15 239 124 469 242 l417
215 0 214 c0 118 -2 214 -4 214 -3 0 -180 -89 -393 -199 -213 -109 -597 -304
-853 -434 l-465 -236 -65 35 c-36 19 -281 145 -545 279 -264 135 -619 316
-790 403 l-310 157 -3 -1057 c-1 -590 -6 -1058 -11 -1058 -8 0 -175 87 -823
431 l-197 104 0 1490 c1 819 3 1493 5 1496 2 4 142 -61 312 -145 169 -84 647
-321 1062 -526z m665 -1670 c165 -87 384 -202 487 -256 l188 -99 0 -867 0
-867 -87 48 c-49 26 -176 94 -283 151 -330 175 -600 319 -722 387 l-118 65 0
172 c-1 290 -1 1191 -1 1373 l1 172 118 -61 c64 -34 252 -132 417 -218z"/>
</g>
</svg>
